<svg width="52" height="49" viewBox="0 0 52 49" fill="none" xmlns="http://www.w3.org/2000/svg">
<path fill-rule="evenodd" clip-rule="evenodd" d="M15.0329 42.9615H23.2623C23.7386 42.9615 24.2053 43.1163 24.2053 43.6473C24.2053 44.3601 23.3802 44.3046 22.8908 44.3046H15.3472C14.7986 44.3046 14.3084 44.2987 14.2044 43.7596C14.158 43.5192 14.233 43.316 14.3815 43.1674C14.5356 43.013 14.7356 42.9616 15.0329 42.9616V42.9615ZM32.2632 40.3613C32.2632 39.8099 32.5441 39.6183 33.1205 39.6183H36.035C36.2749 39.6183 36.4913 39.6671 36.6354 39.7609C36.9225 39.9479 37.0777 40.6369 36.5385 40.8647C36.1576 41.0256 35.4648 40.9311 35.0919 40.9316L34.3492 40.9612C33.8971 40.9612 32.7985 41.0361 32.515 40.8238C32.4 40.7378 32.2633 40.5556 32.2633 40.3612L32.2632 40.3613ZM29.9772 40.9613C29.4797 40.9613 26.9367 41.0184 26.6011 40.8799C26.0281 40.6435 26.0749 39.6183 27.034 39.6183H29.9486C31.0767 39.6183 31.0378 40.4781 30.6396 40.795C30.4731 40.9275 30.2667 40.9613 29.9772 40.9613ZM21.4334 39.6183C21.94 39.6183 23.961 39.5859 24.3754 39.6766C24.9784 39.8083 25.0331 40.6176 24.4919 40.8768C24.1934 41.0197 21.5018 40.9613 21.0332 40.9613C20.0797 40.9613 19.9586 39.9595 20.6437 39.6859C20.7782 39.6322 21.236 39.6183 21.4333 39.6183H21.4334ZM15.0328 39.6183H17.8616C18.272 39.6183 18.8332 39.687 18.8332 40.2183C18.8332 40.473 18.8139 40.7503 18.4516 40.8941C18.1731 41.0048 15.6197 40.9613 15.2042 40.9613C14.6229 40.9613 14.294 40.8763 14.1944 40.369C14.1115 39.9466 14.4619 39.6183 15.0328 39.6183ZM18.2045 34.5607C18.2045 34.7339 18.1836 34.8206 18.1758 34.9892C18.1577 35.3812 17.8147 35.6179 17.4043 35.6179C16.8988 35.6179 14.7764 35.6927 14.4593 35.4769C14.3356 35.3928 14.2639 35.2848 14.2286 35.1075C14.1459 34.6934 14.1754 33.9017 14.1754 33.4462C14.1754 33.1234 14.1857 32.7476 14.317 32.559C14.4957 32.3023 14.7397 32.2746 15.0612 32.2746H17.4329C18.3509 32.2746 18.2045 33.182 18.2045 33.9319C18.2045 34.0844 18.1898 34.1436 18.1789 34.2515C18.1638 34.4029 18.2045 34.4086 18.2045 34.5606V34.5607ZM26.8911 33.5892C26.8911 33.3081 27.0932 33.0942 27.3302 32.9995C27.4742 32.9419 28.0714 32.9319 28.2913 32.9319H36.1206C37.0797 32.9319 37.0735 33.9841 36.5106 34.2077C36.1389 34.3553 29.8931 34.2477 28.7485 34.2463C28.1877 34.2457 27.453 34.4228 27.0825 34.0549C26.9838 33.9569 26.8911 33.7737 26.8911 33.589V33.5892ZM10.1751 38.5039L10.1454 42.8484C10.1474 43.0135 10.1766 43.0637 10.1758 43.2466C10.1744 43.5711 10.1465 43.7869 10.1465 44.1046C10.1465 44.6384 10.1636 45.4204 10.3054 45.9173C10.5362 46.7258 11.1294 47.4735 11.8411 47.8677C12.4591 48.2099 13.0446 48.3336 13.8897 48.3336H37.0063C38.3075 48.3336 38.9912 48.1602 39.7125 47.5537C40.1757 47.1643 40.5982 46.6045 40.7665 46.0074C40.8816 45.5988 40.9148 45.2737 40.9199 44.8464C40.9218 44.6815 40.9511 44.6311 40.9503 44.4482L40.9498 41.8185C40.9513 41.5392 40.921 41.3011 40.921 40.99C40.921 39.3117 40.8816 32.0034 40.9375 31.6341C40.983 31.3332 40.9647 30.729 40.9288 30.4668C40.8784 30.0985 40.9545 29.9678 40.8131 29.3824C40.6016 28.5067 39.9874 27.8047 39.2408 27.3543C38.7475 27.0566 38.0734 26.9028 37.292 26.9028H13.6325C13.0745 26.9028 12.4801 27.065 12.081 27.2374C11.3193 27.5664 10.5589 28.4138 10.3238 29.2519C10.1604 29.8344 10.175 30.2575 10.175 30.9889C10.175 32.2461 10.1705 33.5042 10.1757 34.7615C10.1765 34.9509 10.1456 35.0078 10.1454 35.1885L10.1462 36.6184C10.1846 37.3304 10.1749 37.7773 10.1749 38.5042L10.1751 38.5039Z" fill="#EBEBEB"/>
<path fill-rule="evenodd" clip-rule="evenodd" d="M33.1158 18.1876V24.7598H40.288C40.428 24.7598 40.3737 24.4353 40.3737 24.1597C40.3737 23.5402 40.3493 22.7168 40.4516 22.1803C40.5201 21.822 40.6343 21.4088 40.8369 21.194C41.2872 20.7167 43.0176 20.4657 43.3815 22.152C43.5906 23.1213 43.2863 24.0083 42.6768 24.4626L42.2805 24.7522C42.2051 24.8066 42.1338 24.8439 42.0504 24.8935L39.7828 26.1691C39.5805 26.2823 39.378 26.3224 39.3451 26.4456C39.5242 26.4873 39.8955 26.7292 40.0392 26.8373C40.358 27.0776 40.6332 27.3196 40.8763 27.6289C41.1289 27.9502 41.3238 28.261 41.4803 28.6537C41.7163 29.2459 41.8051 29.8404 41.8026 30.503C41.7999 31.2363 41.8025 31.97 41.8025 32.7033L43.336 31.8651C44.5962 31.237 46.9819 30.121 48.0263 29.4119C48.4821 29.1024 48.6695 28.891 49.0074 28.6214C49.088 28.557 49.2391 28.4052 49.3054 28.3194C49.4082 28.1863 49.4892 28.133 49.5872 28.0012C49.7787 27.7436 50.0374 27.4163 50.1939 27.122C50.2371 27.0409 50.2539 26.9935 50.301 26.9148C50.5741 26.4592 50.8044 25.6817 50.9105 25.1526C51.0116 24.649 51.0742 23.9375 51.089 23.2117V22.56C51.077 21.9826 51.032 21.4335 50.9488 21.0137C50.7339 19.9283 50.3685 19.0952 49.6978 18.2642C49.3192 17.795 48.8803 17.403 48.386 17.0614C48.2722 16.9827 48.1932 16.9329 48.0724 16.8606C46.2844 15.7903 44.4682 15.5586 42.2594 15.5586C40.3958 15.5586 38.5138 15.8242 37.0622 16.2477C36.1314 16.5194 34.8076 17.0267 33.9783 17.5642L33.3076 18.008C33.2433 18.0555 33.1156 18.1084 33.1156 18.1875L33.1158 18.1876Z" fill="#E9A800"/>
<path fill-rule="evenodd" clip-rule="evenodd" d="M0.110678 18.2731V24.0737C0.110678 24.1396 0.130551 24.1594 0.196381 24.1594H7.42572C7.42572 23.9405 7.45 23.7929 7.45519 23.6175C7.47044 23.1068 7.43453 22.4922 7.59318 21.9552C7.78039 21.3214 8.1057 20.8448 8.85445 20.8448C9.19478 20.8448 9.51839 20.969 9.72819 21.114C9.82451 21.1805 9.94194 21.3066 10.0095 21.4042C10.5567 22.1943 10.6376 24.2401 9.77607 24.9383C9.01332 25.5566 6.20092 25.4168 5.11117 25.4168V30.2744C6.13261 30.2744 7.84306 30.2139 8.80951 30.4051C8.9974 30.4422 9.11924 30.4934 9.28308 30.5316C9.28308 29.4524 9.52031 28.5143 10.1237 27.7434C10.6802 27.0326 11.37 26.5091 12.2799 26.242C12.5384 26.1661 12.9917 26.0531 13.3111 26.0446L13.884 26.0151C14.0715 26.0182 14.1293 26.0455 14.4835 26.0455H16.9981C17.0962 26.0455 17.2273 25.7821 17.2787 25.6975C17.358 25.5667 17.4291 25.4295 17.4921 25.2823C17.8767 24.3842 18.0097 23.643 18.0256 22.6439C18.0276 22.5158 18.0533 22.4735 18.0433 22.3715C18.032 22.2565 18.0257 22.174 18.0266 22.045C18.0329 21.1816 17.7718 20.1295 17.4453 19.4546C17.4048 19.3708 17.3933 19.3149 17.3505 19.2352C17.1953 18.9469 16.9143 18.499 16.7039 18.253C15.3931 16.7213 13.5472 15.9993 11.6025 15.7251C11.4418 15.7024 11.2163 15.6585 11.0526 15.6464C10.8559 15.6319 10.6363 15.6284 10.4425 15.5992C10.2463 15.5696 10.0341 15.6047 9.83795 15.5751C9.64102 15.5453 9.40819 15.5586 9.19726 15.5586C7.13654 15.5586 4.2031 16.0558 2.43472 16.8827C2.2527 16.9678 2.10692 17.0322 1.92987 17.1207C1.75564 17.2079 1.60501 17.2764 1.43439 17.3682C0.946709 17.6308 0.709924 17.8151 0.293263 18.0845C0.225175 18.1284 0.110565 18.1852 0.110565 18.2732L0.110678 18.2731Z" fill="#E9A800"/>
<path fill-rule="evenodd" clip-rule="evenodd" d="M19.1191 15.5869V17.1585H18.119V14.3582C18.119 13.5005 18.8149 13.5145 19.0152 13.862C19.1272 14.0565 19.1003 14.1176 19.1208 14.3851C19.1529 14.8056 19.1191 15.1343 19.1191 15.5868V15.5869ZM23.9767 5.27161C24.1822 5.27161 24.3421 5.32479 24.5196 5.32875C24.4393 5.43839 24.2278 5.39638 24.0174 5.42653C23.8038 5.45713 23.6485 5.44561 23.465 5.50286C23.3133 5.55018 23.162 5.6107 22.9871 5.65361C22.877 5.68071 22.5443 5.72881 22.4336 5.72881C22.7609 5.23988 23.0319 5.29431 23.6043 4.92789C23.7028 4.86489 23.7679 4.77083 23.8618 4.69958C24.4034 4.28822 24.4556 4.53258 24.8339 4.78596C24.7599 5.10314 24.8809 5.06735 24.5076 5.11692C24.2733 5.14808 24.0773 5.12132 23.9767 5.27172V5.27161ZM26.5198 3.70005C26.547 3.81703 26.5484 3.83419 26.5484 3.98584C26.452 3.97782 26.4255 3.97804 26.4193 3.8684C26.414 3.77626 26.452 3.74555 26.5198 3.70016V3.70005ZM24.0339 0.699752C24.0794 0.767728 24.0684 0.729562 24.091 0.814023C24.23 0.814023 24.2304 0.803974 24.3195 0.756888C24.3195 0.973913 24.291 1.06763 24.291 1.27122C24.091 1.28782 23.8018 1.40288 23.6052 1.27122C23.5647 1.35557 23.573 1.3628 23.5195 1.44263C23.1122 1.34778 23.1611 1.4712 22.8051 1.4712C22.8728 1.76173 23.1451 1.75699 23.4051 1.75699C23.3838 1.84879 23.3655 1.84833 23.3375 1.94657C23.2659 2.19849 23.2652 2.31118 22.9634 2.40106C22.7359 2.46881 22.4317 2.39937 22.1873 2.45368C22.0885 2.47558 22.0701 2.50664 21.9764 2.52854C22.1032 3.07268 22.9152 2.88569 23.2723 2.76725C23.6024 2.65772 23.9357 2.72852 24.2908 2.72852C24.2908 2.92533 24.2922 2.9286 24.0622 2.9286C24.2027 3.53135 24.1322 3.02345 23.4627 3.38636C23.2334 3.51068 22.9693 3.43853 22.6976 3.37891C22.1381 3.25606 22.008 3.4715 21.5192 3.4715C21.2753 3.4715 20.9769 3.37688 20.8906 3.70005C20.7051 3.68458 20.6495 3.45129 20.2334 3.67148C20.3099 3.99961 20.7019 3.90002 21.0907 3.90002C21.3242 3.90002 21.4635 3.84288 21.6622 3.84288C22.0364 3.84288 22.1533 3.98572 22.5923 3.83001C22.66 3.80596 22.9586 3.6393 23.0364 3.76734C23.0614 3.80878 23.0445 3.7722 23.0388 3.86976C23.0338 3.95817 23.0265 4.08238 23.0249 4.16153C23.022 4.31521 23.0909 4.52908 23.0909 4.70014C22.6382 4.80561 22.502 5.2549 22.0622 5.35731C22.0622 5.83032 21.9494 5.48649 21.8335 5.78583C21.7385 6.03108 21.8191 5.95972 21.3713 6.0094C21.0874 6.04091 20.7745 6.05886 20.5144 6.15258C20.3921 6.19662 20.3532 6.20644 20.3193 6.30028L21.1193 6.21457C21.2496 6.19989 21.397 6.19764 21.5401 6.17799C21.8502 6.13542 21.8026 6.21457 21.9765 6.21457C22.084 6.21457 22.124 6.06699 22.3198 6.04362C22.4753 6.02499 22.6801 6.0172 22.8142 5.99518C22.9431 5.97395 23.8909 5.60912 23.8909 5.87176L23.8338 6.41466C23.7662 6.44707 23.6044 6.4806 23.5194 6.50036C23.5194 6.80806 23.4948 8.17785 23.5808 8.41237C23.6636 8.63832 23.6068 8.33525 23.7004 8.54629C23.758 8.67592 23.7195 11.1769 23.7195 11.5009C24.0642 11.6663 23.9066 11.6121 23.9602 11.9745C23.9921 12.1899 23.9767 12.443 23.9767 12.6724C23.8281 12.5938 23.6945 12.5259 23.5496 12.4422L22.2852 11.6778C22.1115 11.5684 20.6613 10.6436 20.6048 10.6436C20.4485 10.6436 20.1279 10.8343 20.01 10.9059L18.4101 11.8777C18.2152 11.9947 16.4332 13.059 16.3187 13.2153H16.8902V13.8153H15.6043C15.6043 13.6706 15.5849 13.6683 15.5758 13.5581C15.7386 13.5581 15.8964 13.5041 16.033 13.4724C16.0354 13.36 16.0252 13.4053 16.0615 13.3295L15.5766 13.2666C15.6007 12.9664 16.2422 13.2712 16.4902 12.9009C16.0173 12.5843 15.4834 13.0275 15.4329 12.158C15.4005 11.6015 15.2615 11.0545 15.2615 10.5006C15.4321 10.4609 15.5598 10.4639 15.5759 10.2721C15.4736 10.2448 15.5335 10.2469 15.4404 10.2076C15.3815 10.1828 15.3208 10.1716 15.2615 10.1578C15.2676 10.1539 15.2783 10.1434 15.2818 10.1496C15.2853 10.1559 15.2976 10.1433 15.3026 10.1418L15.6746 10.0851C15.8286 10.0536 15.9066 10.004 15.9758 9.90061C15.8422 9.64813 15.4873 9.65038 15.1758 9.64338C15.121 9.40829 14.9168 7.30952 14.891 6.92786C14.8806 6.7734 14.8615 6.69322 14.8615 6.52882C15.0969 6.52882 15.1504 6.48478 15.2329 6.32884C15.0711 6.2856 15.0369 6.21977 14.8043 6.21457C14.8043 5.80096 15.3002 6.25601 15.5187 5.84308C15.3252 5.55413 14.6191 5.64311 14.29 5.64311L14.2903 4.32831C14.2916 4.11524 14.2598 4.02773 14.261 3.81477C14.263 3.46484 14.2535 3.14856 14.1756 2.81422C13.9527 2.86616 14.0322 3.03734 14.0328 3.4715L13.9772 5.44494C13.9813 5.7427 14.0558 5.64322 13.3183 5.64322C13.0853 5.64322 12.8254 5.685 12.7754 5.87176C12.9721 6.16557 13.4897 5.87605 13.4897 6.15755C13.4897 6.32625 13.2663 6.22022 13.0611 6.35753C13.1716 6.5225 13.2468 6.50759 13.4612 6.55761C13.4612 6.79846 13.399 7.07793 13.378 7.33154C13.3366 7.83006 13.1469 9.3297 13.1469 9.67218C12.9235 9.67218 12.3754 9.63593 12.3754 9.9294C12.3754 10.1002 12.9231 10.1295 13.0611 10.1295L12.8747 10.2287C12.7873 10.2776 12.7873 10.3102 12.7469 10.3866C12.8152 10.4227 12.9505 10.4818 13.0327 10.5009C13.0327 11.0347 12.9027 11.5711 12.8606 12.1004C12.8059 12.7885 12.4159 12.6055 11.9675 12.7789C11.888 12.8097 11.8929 12.8233 11.804 12.844C11.9087 13.2935 12.6914 12.9489 12.7184 13.2726C12.5549 13.2762 12.4172 13.3298 12.2327 13.3298C12.2445 13.4723 12.2642 13.4642 12.3767 13.5C12.4586 13.5261 12.5609 13.556 12.6613 13.5583C12.5496 14.0376 12.1372 13.8708 11.7469 13.8727C11.5583 13.8734 11.4625 13.8561 11.3183 13.8441V10.9581H9.23236C9.23236 10.5008 9.34957 10.4695 8.88955 10.4722L4.37471 10.5009C4.37471 10.6532 4.36997 10.8151 4.40328 10.9581L3.03191 10.9228C2.80879 10.9227 2.66629 10.9546 2.48935 10.9586C2.0378 10.969 2.00302 10.8467 2.00302 12.1868C2.00302 13.4244 2.06016 14.6487 2.06016 15.8728C2.24139 15.8306 2.42262 15.7333 2.59978 15.6695L3.99994 15.2123C4.09219 15.186 4.26044 15.1794 4.26044 15.0727V12.901C4.26044 12.8025 4.23932 12.7904 4.23187 12.701H9.3752V14.4154C9.3752 14.5642 9.90749 14.488 10.1545 14.5219L11.0121 14.5787C11.1143 14.5919 11.3465 14.6172 11.4206 14.6057C11.4688 14.5981 11.5833 14.5692 11.6113 14.5655L12.2322 14.5588C12.3866 14.5734 12.4483 14.6301 12.4613 14.7869C12.888 14.8864 13.339 14.9885 13.7508 15.1261C13.8711 15.1663 14.04 15.2411 14.1758 15.2441V15.044C14.1758 14.8653 14.7296 14.9248 14.7943 14.347C14.8367 13.9678 14.4666 13.6725 14.0329 13.6725C13.6066 13.6725 13.6136 13.9309 13.4043 13.9868C13.3222 13.8406 13.4853 13.746 13.6137 13.6819C13.7339 13.6221 13.7883 13.56 13.9186 13.5296V6.98613H14.0043V13.5296C14.0914 13.5277 14.1085 13.5167 14.1757 13.501C14.1757 13.115 14.1471 12.8325 14.1471 12.4438V7.21467C14.1471 7.08335 14.1591 7.01345 14.2614 6.98613C14.2614 7.42899 14.2297 13.2172 14.2625 13.4428C14.2952 13.6669 14.7001 13.6192 14.8636 14.0991C14.8902 14.1773 14.8797 14.244 14.9757 14.244H16.8902V14.3583H15.0329C14.8715 14.3583 14.8192 14.7316 14.7196 14.8166C14.5141 14.9922 14.2899 14.9868 14.2899 15.2441C14.2899 15.3661 14.6755 15.4752 14.7839 15.5216C15.1485 15.6777 15.4657 15.8726 15.8029 16.0741C15.8861 16.1237 15.955 16.1733 16.0444 16.2327C16.1218 16.2842 16.2132 16.3665 16.2901 16.3871C16.1536 16.1025 16.0043 15.2244 16.0043 14.8726C16.0043 14.4122 16.6799 14.587 16.9472 14.587V16.9015C16.9472 16.9993 17.1864 17.1731 17.2531 17.2528C17.3664 17.3882 17.4555 17.4877 17.567 17.6247L17.9849 18.2069C18.0242 18.2754 18.0659 18.3874 18.1474 18.3874C19.5457 18.3874 19.3765 18.5221 19.3762 17.9587V16.3872C19.3762 15.9251 19.3405 15.777 19.5165 15.4703C19.6533 15.2321 19.8723 15.1331 20.0905 14.987C20.0905 14.5324 19.8956 13.644 20.662 13.644C20.8757 13.644 21.0377 13.9139 21.0794 14.1124L21.1191 14.9585H22.1192C22.1192 14.5317 21.9767 13.6441 22.6336 13.6441C22.8675 13.6441 23.0157 13.7888 23.0736 14.0041C23.1039 14.1164 23.1117 14.2325 23.1207 14.3579C23.1756 15.1199 22.8392 14.9586 24.0337 14.9586C24.0337 14.4748 24.0623 14.0936 24.0623 13.6155C24.0827 13.6449 24.0676 13.6179 24.0937 13.67C24.2331 13.948 24.1773 14.3127 24.176 14.6163C24.1753 14.7802 24.2024 14.8337 24.2053 14.9586H26.4054C26.4054 14.5339 26.268 13.4851 26.1313 13.0897C26.0053 12.7251 25.8625 12.526 25.8625 12.0725C25.8625 11.7738 25.8341 11.4349 25.9091 11.1475C25.9495 10.9926 26.0055 10.8693 26.0055 10.701C26.0055 10.2436 25.8892 9.87204 25.8911 9.38661C25.8922 9.11708 25.8596 8.94003 25.8613 8.70008L25.8626 6.50048C25.7831 6.45847 25.7338 6.43792 25.6341 6.41477C25.6341 6.25003 25.5814 6.08935 25.6729 5.93928C25.7354 5.83687 25.8746 5.75342 25.9485 5.64322C25.8477 5.45295 25.7663 5.21967 25.7217 5.01269C25.7028 4.92473 25.6965 4.82785 25.6628 4.75739C25.7871 4.76021 26.2914 4.82356 26.2914 4.98593C26.2914 5.59783 26.1041 5.47226 26.1771 5.78606C26.3079 5.7751 26.3423 5.72926 26.3954 5.63283C26.5605 5.3327 26.52 4.95025 26.52 4.61455C26.7414 4.59615 26.9487 4.49904 26.9487 5.21459C26.9487 5.32457 26.9055 5.31339 26.9495 5.41185C26.9851 5.49214 27.0266 5.50704 27.1202 5.52883C27.312 5.16615 26.942 4.21709 26.8875 4.16131C26.8332 4.10587 26.825 4.10891 26.737 4.08328L26.5773 4.0144H26.9202C26.9969 3.86942 27.2917 3.47116 27.2917 3.29998C27.2917 3.05947 27.0868 2.72693 26.9332 2.62983C26.7533 2.51601 26.3739 2.44284 26.0916 2.44284C25.9988 2.44284 26.032 2.46452 26.004 2.52662C26.0036 2.52775 25.9858 2.58602 25.9836 2.592C25.9662 2.63954 25.9673 2.63626 25.9487 2.67138H25.5201C25.4985 2.76386 25.4715 2.79672 25.4629 2.89992C25.05 2.70175 25.2057 2.71666 25.2057 2.07123C25.2057 1.60636 24.9974 1.53341 24.7485 1.41406C24.7566 1.05149 24.8559 1.03229 24.4914 0.756775C24.228 0.557591 24.3548 0.625002 24.0342 0.69964L24.0339 0.699752Z" fill="#EBEBEB"/>
<path fill-rule="evenodd" clip-rule="evenodd" d="M31.6313 17.13C31.4106 17.0786 31.4486 16.873 31.459 16.529L31.4884 14.9584C31.6734 14.9584 31.6639 14.9565 31.6623 15.156L31.6589 16.0452C31.6679 16.3433 31.7171 16.0918 31.664 16.5627L31.6313 17.13ZM31.517 12.7866H31.6313C31.6313 13.004 31.6876 13.1771 31.6891 13.5873C31.6898 13.7701 31.6608 13.8206 31.6587 13.9856C31.6569 14.1372 31.6598 14.2918 31.6598 14.4439C31.435 14.4439 31.4862 14.3975 31.4884 14.0724C31.4916 13.6098 31.437 13.8615 31.4867 13.2136C31.4925 13.1387 31.4846 13.0668 31.4927 12.9909C31.502 12.9033 31.517 12.909 31.517 12.7866ZM31.4884 11.415H31.6313C31.6313 11.5963 31.6598 11.6536 31.6598 11.8437V12.3294H31.4884V11.415ZM40.375 11.8722C40.4548 11.5299 40.8041 11.3947 40.9629 11.8559C41.0183 12.0169 41.0322 12.21 41.0322 12.4151C40.9056 12.3305 40.4298 11.9541 40.375 11.8722ZM27.5452 11.7008V11.5866C27.5452 11.429 27.5656 11.3706 27.7166 11.3579V11.758C27.6416 11.7755 27.5452 11.8256 27.5452 11.7008ZM28.7167 11.1865C28.8613 11.1865 28.8637 11.2059 28.9739 11.2151C28.9878 11.3815 29.0311 11.503 29.0311 11.7008H28.7454L28.7168 11.1865H28.7167ZM29.4024 9.87216C29.4024 10.024 29.4438 10.0115 29.4024 10.1007C29.3334 10.0501 29.2974 9.98327 29.2882 9.87216H29.4024ZM28.6023 9.61494C28.725 9.64768 28.7157 9.68833 28.7451 9.81491C28.6122 9.80385 28.6052 9.75089 28.6023 9.61494ZM28.5737 8.87195L28.6023 9.61494L28.5737 8.87195ZM28.5452 8.12896H28.6023L28.6635 8.32769C28.4714 8.28513 28.5452 8.26683 28.5452 8.12896ZM31.4312 7.78604C31.4312 7.47089 31.4163 7.46694 31.4883 7.15743H31.6026C31.6658 7.42866 31.6312 8.22878 31.6312 8.55759C31.6312 8.62342 31.6113 8.6433 31.5455 8.6433C31.3822 8.6433 31.4688 8.42842 31.4604 8.27248C31.452 8.11214 31.4312 7.99008 31.4312 7.78604ZM29.3739 9.12906C29.3567 8.92276 29.237 8.5996 29.1659 8.42266C29.1433 8.36654 29.0546 8.12016 29.0355 8.09588C28.9618 8.00306 28.8191 8.04315 28.8025 7.84306C28.8677 7.82793 28.8682 7.82093 28.9453 7.81449C28.8811 7.68057 28.8141 7.49663 28.7646 7.3381C28.6863 7.08776 28.5951 7.24201 28.4596 6.98591C28.5466 6.98783 28.5637 6.99879 28.631 7.01448C28.5873 6.82704 28.4833 6.53877 28.4023 6.38588C28.1681 6.44843 28.1303 6.88022 28.0699 7.08212L27.4634 9.04731C27.3094 9.56029 27.1958 9.12725 27.1079 9.74897C27.0891 9.88176 27.0704 10.0381 27.0472 10.2028C27.0175 10.4145 26.944 11.1643 26.8763 11.3177C26.8417 11.3962 26.8167 11.3969 26.749 11.4476C26.406 11.7049 26.434 12.2925 26.745 12.5007C26.681 12.7751 26.6638 13.3322 26.6282 13.6413C26.6186 13.7252 26.552 14.1551 26.5654 14.1809C26.6099 14.2658 27.054 14.2153 27.1735 14.2153C27.2184 14.0224 27.2411 13.6917 27.26 13.4732C27.2932 13.089 27.3748 12.6824 27.3738 12.3011C27.3733 12.1174 27.4 12.0675 27.4022 11.9009C27.406 11.6215 27.4209 11.3515 27.6878 11.3292L27.6289 13.9282C27.5931 14.3165 27.4394 14.2153 28.9164 14.2153C28.9164 14.052 28.8994 13.9937 28.8895 13.8709L28.745 11.3292C28.8242 11.3672 29.0299 11.3982 29.0853 11.4462C29.121 11.4771 29.0988 11.4285 29.1293 11.5164L29.6131 14.4615C29.6519 14.6589 29.7949 14.7435 29.8543 14.9348C29.9697 15.3072 29.8967 15.8493 29.919 16.272C29.9259 16.4021 29.9277 16.3318 29.9209 16.4481C29.8977 16.8446 29.9167 17.247 29.9167 17.6442H32.0025C32.0025 16.8424 32.2756 16.6577 32.8481 16.261C33.0019 16.1544 33.1397 16.0692 33.3004 15.9704L33.643 15.7701C33.8165 15.675 33.7596 15.5705 33.8082 15.3638L34.0563 14.4974C34.1167 14.3293 34.1928 14.1309 34.2693 13.9675C34.5036 13.4676 34.7584 12.9989 35.0841 12.5536C35.3374 12.2073 35.6333 11.8484 35.9911 11.6032C36.3874 11.3315 36.8058 11.055 37.3174 11.0436C37.6504 11.6727 37.8175 12.5336 37.9094 13.2803L37.9746 14.1867C38.1967 14.135 38.4467 14.0888 38.6684 14.052C38.8013 14.0298 39.3374 13.9612 39.4033 13.9296C39.4587 13.8737 39.0693 12.4571 39.057 12.4185L38.5175 11.0436C38.9834 11.29 39.3176 11.6236 39.5176 11.7293L39.5173 13.6154C39.5126 14.1443 39.6004 13.8438 40.2606 13.8438V12.5579C40.3703 12.5871 40.3239 12.5749 40.3886 12.6585C40.6012 12.933 40.9475 13.4567 40.975 13.7866C41.2634 13.7866 41.438 13.7574 41.7178 13.7581C41.9846 13.7586 42.2513 13.7581 42.518 13.7581C42.4656 13.5331 42.2885 13.2943 42.1735 13.1025C41.8145 12.5036 41.6478 12.3521 41.854 11.5798C42.0104 10.9943 42.6691 10.7659 42.8562 11.4482C42.9518 11.7973 42.941 12.9748 42.918 13.3868C42.895 13.8011 42.7553 13.7866 43.4894 13.7866L43.4893 12.3292C43.4886 12.1317 43.5147 12.0311 43.5189 11.8729C43.5329 11.3333 43.6212 10.6639 44.2899 10.6692C44.7676 10.673 44.8652 11.1707 44.8614 11.5573C44.8595 11.7597 44.8885 11.8419 44.8907 12.0138L44.86 12.9569C44.8594 13.3127 44.8895 13.5671 44.8895 13.9295C45.1367 13.935 45.397 14.0385 45.6324 14.0437C45.6324 13.7041 45.6665 13.1035 45.6203 12.7985C45.5377 12.2527 45.5441 11.0015 45.8721 10.5689C46.0721 10.3051 46.4069 10.1384 46.7644 10.1963C47.5893 10.3298 47.4325 11.4274 47.4325 12.0721C47.4325 12.5183 47.404 12.8609 47.404 13.3009C47.404 13.7295 47.404 14.1581 47.404 14.5867C47.4989 14.637 47.5742 14.6613 47.6803 14.7104C48.1409 14.9238 48.5662 15.1823 48.987 15.4611L49.4613 15.8155V9.10049C49.3509 9.09135 49.1245 9.02168 49.0291 8.98983C48.4434 8.79426 48.3378 8.68496 47.69 8.84361C46.783 9.06571 45.8708 9.22933 44.9631 9.43134L43.1247 9.8218C42.7493 9.90129 42.5994 10.0092 42.232 9.81491C42.4122 9.04121 41.6847 8.37252 40.9524 8.47821C40.8129 8.49831 40.5883 8.59034 40.4952 8.6783C40.1697 8.98543 40.1867 9.18744 39.9853 9.53996C39.8927 9.70188 39.7094 9.69985 39.5459 9.78634C39.5459 9.93878 39.5455 10.0912 39.546 10.2437C39.5468 10.4356 39.5173 10.5525 39.5173 10.7007L38.7468 10.414C38.4551 10.2527 38.4906 10.0866 38.0526 10.0225C37.405 9.9276 37.2395 10.0371 36.7134 10.2399C36.5694 10.2955 36.43 10.3174 36.2824 10.3519C35.2235 10.5997 34.2492 11.1482 33.5453 11.9581C33.5453 10.2303 33.5168 8.58266 33.5168 6.87187C33.4139 6.80299 33.3058 6.74111 33.2024 6.67178C33.2024 6.3109 33.2524 6.30029 33.0532 6.10652C32.5873 5.65316 31.9321 5.81452 31.1735 5.81452V6.41456L30.9163 6.52883V8.61473C30.8543 8.62918 30.7416 8.67469 30.6878 8.70043V9.61483H30.945C31.0905 9.33976 31.1687 9.03331 31.6019 9.04087C32.1591 9.05047 32.4277 9.70019 32.0532 10.0659C31.8315 10.2826 31.4314 10.3492 31.1853 10.1174C31.1348 10.0699 30.9822 9.79956 30.945 9.7291H30.6878V10.5007C30.7416 10.5265 30.8544 10.5719 30.9163 10.5864C30.9163 11.31 30.92 12.0347 30.916 12.7584C30.9147 12.9714 30.9464 13.059 30.9453 13.272C30.9424 13.7846 30.9948 14.4135 30.8878 14.8725H30.745C30.6384 14.6504 30.5319 13.679 30.4798 13.3662L29.8903 9.75518C29.8494 9.5158 29.6476 9.62657 29.5341 9.42558C29.4784 9.327 29.4457 9.21217 29.3734 9.12906H29.3739Z" fill="#EBEBEB"/>
<path fill-rule="evenodd" clip-rule="evenodd" d="M20.4274 20.3879C20.5541 20.4218 20.7824 20.6269 20.8609 20.726C21.2453 21.2106 21.2561 22.0277 21.2561 22.7024V26.0457H28.7997C28.8655 26.0457 28.8854 26.0258 28.8854 25.96V16.0161H20.4274V20.388V20.3879Z" fill="#EAA700"/>
<path fill-rule="evenodd" clip-rule="evenodd" d="M0 38.2466C0 38.3713 0.660559 38.8018 0.754166 38.8641C1.03567 39.051 1.32631 39.2402 1.62893 39.3895C1.96801 39.5567 2.1611 39.6841 2.57166 39.8469C2.9077 39.9802 3.23087 40.1097 3.59672 40.222C5.52442 40.8131 7.05737 40.9327 9.28667 40.9327V35.5893C7.52134 36.0005 7.45314 34.1725 7.45799 32.8746C7.4589 32.6196 7.42875 32.4779 7.42931 32.2176C7.42976 31.989 7.42931 31.7604 7.42931 31.5317H0V38.2467V38.2466Z" fill="#EAA700"/>
<path fill-rule="evenodd" clip-rule="evenodd" d="M41.7784 35.3601C41.7784 36.068 41.807 36.6798 41.807 37.3889V40.4463H50.6365V32.8455C50.6365 32.7796 50.6166 32.7598 50.5507 32.7598H43.4644C43.4644 33.271 43.4081 33.717 43.2771 34.1728C43.232 34.33 43.1103 34.5916 43.0144 34.7102C42.5665 35.2642 42.044 35.2195 41.7784 35.3601Z" fill="#EAA700"/>
<path fill-rule="evenodd" clip-rule="evenodd" d="M7.91768 14.0726C7.91768 13.9954 7.93134 13.9938 7.94624 13.9298H8.51771V14.3013H7.91768V14.0727V14.0726ZM7.23194 13.9298H7.80341C7.80634 14.059 7.83197 14.0434 7.83197 14.187V14.3013H7.23194V13.9298ZM6.5462 13.9298H7.11767V14.3013H6.5462V13.9298ZM5.83178 13.9584L6.43181 13.9298V14.3298L5.83178 14.3013V13.9584ZM5.71751 14.3013H5.14604V13.9298H5.66037C5.8136 13.9298 5.71751 14.154 5.71751 14.3013ZM7.91768 13.2726H8.51771V13.8155H7.91768V13.2726ZM7.23194 13.2726H7.83197V13.8155H7.23194V13.2726ZM6.5462 13.2726H7.11767V13.8155H6.5462V13.2726ZM5.83178 13.2726H6.43181V13.8155H5.83178V13.2726ZM5.71751 13.4727V13.7871L5.14604 13.8156V13.2727H5.74607C5.73862 13.362 5.71751 13.3742 5.71751 13.4728V13.4727ZM4.54589 13.6155C4.54589 14.1356 4.57446 14.5545 4.57446 15.0728C4.63769 15.0425 4.79826 15.0082 4.86714 14.994C5.1929 14.9273 5.14593 15.0484 5.14593 14.4727H5.63169C5.74088 14.4727 5.64208 14.4815 5.71739 14.4441V14.8156H5.83166V14.4727L6.40313 14.4441V14.7013C6.56664 14.6977 6.54597 14.7076 6.54597 14.4441H7.11744V14.6155H7.23171C7.23171 14.3899 7.21986 14.5256 7.26028 14.4441H7.80318C7.81425 14.5769 7.77258 14.4941 7.86032 14.5584C8.05464 14.5066 7.81244 14.4718 8.11505 14.4702C8.2247 14.4696 8.34732 14.4625 8.44703 14.462L8.71588 14.5028C8.83049 14.5029 8.94566 14.5013 9.0605 14.5013V12.9297H4.54578V13.6154L4.54589 13.6155Z" fill="#EBEBEB"/>
<path fill-rule="evenodd" clip-rule="evenodd" d="M15.0565 34.7316C15.8414 34.7316 16.5299 34.7602 17.3139 34.7602C17.3139 34.4761 17.3036 34.0077 17.3347 33.7809C17.3508 33.6627 17.3415 33.5374 17.3431 33.4167C17.3473 33.0861 17.4076 33.1315 16.9139 33.1315C16.591 33.1315 16.5795 33.1595 16.4279 33.1622C16.3048 33.1644 16.2807 33.1454 16.1953 33.1357L15.0565 33.1315C15.0565 33.3974 15.078 33.6925 15.04 33.9437C15.0009 34.2015 15.0383 34.5129 15.0565 34.7317V34.7316Z" fill="#E9A800"/>
</svg>
