<svg width="74" height="72" viewBox="0 0 74 72" fill="none" xmlns="http://www.w3.org/2000/svg">
<g filter="url(#filter0_ii_1_2327)">
<mask id="path-1-inside-1_1_2327" fill="white">
<path d="M73.201 35.9999C73.201 55.8102 56.941 71.8695 36.8831 71.8695C16.8253 71.8695 0.565186 55.8102 0.565186 35.9999C0.565186 16.1897 16.8253 0.130371 36.8831 0.130371C56.941 0.130371 73.201 16.1897 73.201 35.9999ZM10.9952 35.9999C10.9952 50.1209 22.5856 61.5682 36.8831 61.5682C51.1806 61.5682 62.771 50.1209 62.771 35.9999C62.771 21.879 51.1806 10.4316 36.8831 10.4316C22.5856 10.4316 10.9952 21.879 10.9952 35.9999Z"/>
</mask>
<path d="M73.201 35.9999C73.201 55.8102 56.941 71.8695 36.8831 71.8695C16.8253 71.8695 0.565186 55.8102 0.565186 35.9999C0.565186 16.1897 16.8253 0.130371 36.8831 0.130371C56.941 0.130371 73.201 16.1897 73.201 35.9999ZM10.9952 35.9999C10.9952 50.1209 22.5856 61.5682 36.8831 61.5682C51.1806 61.5682 62.771 50.1209 62.771 35.9999C62.771 21.879 51.1806 10.4316 36.8831 10.4316C22.5856 10.4316 10.9952 21.879 10.9952 35.9999Z" stroke="#EBECF0" stroke-width="9.69448" mask="url(#path-1-inside-1_1_2327)"/>
</g>
<defs>
<filter id="filter0_ii_1_2327" x="-0.404262" y="-1.80852" width="73.6053" height="75.1322" filterUnits="userSpaceOnUse" color-interpolation-filters="sRGB">
<feFlood flood-opacity="0" result="BackgroundImageFix"/>
<feBlend mode="normal" in="SourceGraphic" in2="BackgroundImageFix" result="shape"/>
<feColorMatrix in="SourceAlpha" type="matrix" values="0 0 0 0 0 0 0 0 0 0 0 0 0 0 0 0 0 0 127 0" result="hardAlpha"/>
<feOffset dx="-0.969448" dy="-1.9389"/>
<feGaussianBlur stdDeviation="0.969448"/>
<feComposite in2="hardAlpha" operator="arithmetic" k2="-1" k3="1"/>
<feColorMatrix type="matrix" values="0 0 0 0 1 0 0 0 0 1 0 0 0 0 1 0 0 0 1 0"/>
<feBlend mode="normal" in2="shape" result="effect1_innerShadow_1_2327"/>
<feColorMatrix in="SourceAlpha" type="matrix" values="0 0 0 0 0 0 0 0 0 0 0 0 0 0 0 0 0 0 127 0" result="hardAlpha"/>
<feOffset dy="1.45417"/>
<feGaussianBlur stdDeviation="0.969448"/>
<feComposite in2="hardAlpha" operator="arithmetic" k2="-1" k3="1"/>
<feColorMatrix type="matrix" values="0 0 0 0 0 0 0 0 0 0 0 0 0 0 0 0 0 0 0.25 0"/>
<feBlend mode="normal" in2="effect1_innerShadow_1_2327" result="effect2_innerShadow_1_2327"/>
</filter>
</defs>
</svg>
