<svg width="225" height="119" viewBox="0 0 225 119" fill="none" xmlns="http://www.w3.org/2000/svg">
<g filter="url(#filter0_d_3_21)">
<path d="M186.543 73.9742H216.115V105.584H163.439V85.7198C163.439 78.0948 157.206 71.8766 149.563 71.8766H142.671C142.723 71.6013 142.778 71.3402 142.835 71.0951C143.7 67.4132 145.466 64.122 148.137 61.2251C150.414 58.7972 153.478 56.426 157.325 54.078C158.817 53.2166 162.312 51.3747 167.81 48.5542C176.293 44.2649 181.535 41.249 183.537 39.5261C185.54 37.8033 186.541 35.4908 186.541 32.5921C186.541 30.4181 185.991 28.5585 184.892 27.0311C183.792 25.5036 182.104 24.7398 179.827 24.7398C177.235 24.7398 175.567 25.6794 174.819 27.5408C174.073 29.4004 173.699 31.8106 173.699 34.7679V36.9809V40.8387H143.777V13.6532C148.883 9.91271 154.694 7.18989 161.213 5.52566C167.733 3.84189 174.643 3 181.948 3C187.054 3 191.647 3.45114 195.733 4.35164C199.817 5.25213 203.606 6.91637 207.102 9.34612C210.597 11.7546 213.287 14.829 215.173 18.5518C217.058 22.2728 218 26.6208 218 31.6348V35.1604C218 41.1726 216.782 46.3429 214.347 50.6518C211.363 55.8808 206.298 60.2287 199.149 63.6744L187.958 69.1769C181.282 72.5462 176.923 75.2086 174.88 77.1677C173.309 78.6366 172.524 80.4784 172.524 82.6719V84.7855H176.176C180.101 84.7855 182.813 84.0023 184.305 82.4357C185.797 80.8674 186.543 78.0469 186.543 73.9742ZM126.224 4.87915V105.584H94.7684V32.6117V31.2014C94.7684 29.086 94.5726 27.3827 94.1791 26.0897C93.7875 24.7967 92.8439 23.6813 91.3519 22.7417V4.87915H126.224ZM37.6276 38.3699H7.46824V13.8877C12.4159 10.2253 18.2483 7.48473 24.9639 5.7015C31.6794 3.9005 38.4519 3 45.2868 3C55.7322 3 64.0589 5.03545 70.2635 9.09036C77.725 13.9481 81.4549 21.3315 81.4549 31.26C81.4549 36.5671 80.4347 41.0128 78.3926 44.6165C76.3506 48.2203 72.9732 50.9431 68.2606 52.8223C73.5233 54.7032 77.2532 57.7972 79.4537 62.1043C80.8086 64.7525 81.6774 68.01 82.0584 71.8748H79.0193C71.3762 71.8748 65.1432 78.0931 65.1432 85.718V104.392C63.0495 105.165 60.7884 105.797 58.3653 106.287C54.0462 107.149 49.1377 107.58 43.6399 107.58C36.4134 107.58 29.9738 106.836 24.3194 105.348C17.643 103.625 11.8711 100.765 7 96.7691V68.8039H37.6312V72.564C37.6312 76.5585 37.7879 79.2618 38.1012 80.672C38.8863 84.1195 40.6151 85.8423 43.2856 85.8423C46.1128 85.8423 48.1549 84.6683 49.4119 82.3185C50.3537 80.5157 50.8255 78.1659 50.8255 75.2672C50.8255 70.802 49.8445 67.7471 47.879 66.1024C45.917 64.4577 42.577 63.6354 37.8644 63.6354H28.0866V43.6574H36.2158C41.6352 43.6574 45.2868 43.0304 47.1722 41.796C49.0558 40.5421 49.9994 37.8211 49.9994 33.6098C49.9994 31.1215 49.5667 29.1447 48.7033 27.6563C47.603 25.7167 45.8369 24.7381 43.4013 24.7381C40.4175 24.7381 38.6104 26.7167 37.9819 30.6721C37.7469 32.1605 37.6294 34.3345 37.6294 37.1941V38.3699H37.6276Z" fill="#E9A700"/>
<path d="M162.312 105.602H141.694C141.694 105.602 139.628 81.1143 142.671 72.0187C147.115 58.7332 168.392 75.2797 168.392 75.2797L165.353 105.604H162.312V105.602Z" fill="#E9A700"/>
<path d="M65.0452 104.446C65.0452 104.446 83.7515 98.8969 81.9979 71.3491L68.0861 71.0915L62.0062 83.2207L65.0452 104.446Z" fill="#E9A700"/>
<path d="M114.5 21.1965C111.76 21.1965 109.184 21.1947 106.608 21.1982C106.341 21.1982 106.074 21.2231 105.819 21.2355C105.242 24.0898 106.556 26.0755 109.341 26.3863C110.526 26.5195 111.751 26.3135 112.958 26.2531C113.193 26.2407 113.425 26.1892 113.763 26.143C113.763 27.539 113.779 28.864 113.744 30.189C113.74 30.356 113.5 30.6259 113.327 30.665C110.703 31.2796 108.084 31.443 105.607 30.134C103.168 28.8445 102.301 26.5817 102.191 24.0134C102.088 21.6263 102.169 19.2303 102.169 16.7366C106.227 16.7366 110.277 16.7366 114.395 16.7366C114.44 16.1398 114.479 15.6407 114.52 15.0955C115.663 15.0955 116.776 15.0955 117.947 15.0955C117.947 20.8146 117.947 26.5213 117.947 32.2813C116.833 32.2813 115.725 32.2813 114.502 32.2813C114.5 28.6385 114.5 24.9938 114.5 21.1965Z" fill="black"/>
<path d="M110.45 67.0597C113.272 67.1432 115.973 68.1467 117.408 71.1271C118.928 74.2886 118.851 77.5158 116.793 80.4358C113.619 84.9383 105.392 84.3983 102.8 79.5921C100.809 75.8995 101.767 70.8233 104.89 68.5765C106.455 67.454 108.237 67.0686 110.45 67.0597ZM110.017 71.5409C109.107 71.7984 108.011 71.9672 107.048 72.4183C105.81 72.9991 105.337 74.1376 105.403 75.5035C105.465 76.8142 106.083 77.7698 107.263 78.2849C109.035 79.0557 110.863 79.0877 112.665 78.379C114.043 77.8373 114.753 76.7912 114.758 75.2885C114.764 73.7824 114.037 72.7327 112.672 72.1927C111.894 71.8872 111.037 71.7842 110.017 71.5409Z" fill="black"/>
<path d="M110.037 49.4583C106.115 49.4458 103.316 47.5827 102.239 44.2666C101.046 40.5971 102.148 36.5564 104.881 34.5761C109.626 31.1375 116.717 33.4464 118.082 38.8814C118.527 40.6522 118.479 42.4266 117.947 44.1707C116.911 47.5614 114.036 49.4689 110.037 49.4583ZM110.088 44.9735C110.968 44.7675 111.881 44.6521 112.718 44.3341C114.066 43.8208 114.742 42.7694 114.758 41.3076C114.773 39.8458 114.101 38.7944 112.782 38.226C111.002 37.4605 109.172 37.4676 107.386 38.2118C105.992 38.7908 105.351 39.924 105.406 41.4675C105.458 42.9399 106.209 43.9274 107.578 44.391C108.37 44.6609 109.218 44.7782 110.088 44.9735Z" fill="black"/>
<path d="M114.265 59.7048C112.962 59.7048 111.878 59.7048 110.719 59.7048C110.779 59.1435 110.877 58.6178 110.884 58.092C110.906 56.5113 110.008 55.5362 108.499 55.4492C107.001 55.3621 105.933 56.2307 105.785 57.7688C105.7 58.6604 105.769 59.568 105.769 60.5484C109.832 60.5484 113.859 60.5484 117.945 60.5484C117.945 62.0653 117.945 63.5039 117.945 65.0065C112.716 65.0065 107.482 65.0065 102.048 65.0065C102.152 61.8539 102.034 58.6924 102.415 55.5913C102.814 52.3534 105.483 50.6323 109.001 50.865C112.013 51.0639 114.176 53.2397 114.372 56.371C114.44 57.4438 114.308 58.5307 114.265 59.7048Z" fill="black"/>
<path d="M102.212 84.1852C103.369 84.1852 104.477 84.1852 105.689 84.1852C105.689 86.2473 105.689 88.2632 105.689 90.3537C109.816 90.3537 113.842 90.3537 117.935 90.3537C117.935 91.8687 117.935 93.3056 117.935 94.8189C112.741 94.8189 107.511 94.8189 102.212 94.8189C102.212 91.3217 102.212 87.7961 102.212 84.1852Z" fill="black"/>
</g>
<defs>
<filter id="filter0_d_3_21" x="0" y="0" width="225" height="118.58" filterUnits="userSpaceOnUse" color-interpolation-filters="sRGB">
<feFlood flood-opacity="0" result="BackgroundImageFix"/>
<feColorMatrix in="SourceAlpha" type="matrix" values="0 0 0 0 0 0 0 0 0 0 0 0 0 0 0 0 0 0 127 0" result="hardAlpha"/>
<feOffset dy="4"/>
<feGaussianBlur stdDeviation="3.5"/>
<feComposite in2="hardAlpha" operator="out"/>
<feColorMatrix type="matrix" values="0 0 0 0 0 0 0 0 0 0 0 0 0 0 0 0 0 0 0.3 0"/>
<feBlend mode="normal" in2="BackgroundImageFix" result="effect1_dropShadow_3_21"/>
<feBlend mode="normal" in="SourceGraphic" in2="effect1_dropShadow_3_21" result="shape"/>
</filter>
</defs>
</svg>
